HIERARCHY
ROOT SimulationBone
{
	OFFSET 0.000000 0.000000 0.000000
	CHANNELS 6 Xposition Yposition Zposition Zrotation Yrotation Xrotation 
	JOINT Hips
	{
		OFFSET 0.000000 0.000000 0.000000
		CHANNELS 6 Xposition Yposition Zposition Zrotation Yrotation Xrotation 
		JOINT RightUpLeg
		{
			OFFSET 0.103461 1.857818 10.548512
			CHANNELS 3 Zrotation Yrotation Xrotation
			JOINT RightLeg
			{
				OFFSET 43.500000 -0.000019 0.000004
				CHANNELS 3 Zrotation Yrotation Xrotation
				JOINT RightFoot
				{
					OFFSET 42.372200 0.000011 0.000000
					CHANNELS 3 Zrotation Yrotation Xrotation
					JOINT RightToe
					{
						OFFSET 17.300009 0.000002 0.000004
						CHANNELS 3 Zrotation Yrotation Xrotation
						End Site
						{
							OFFSET 0.000000 0.000000 0.000000
						}
					}
				}
			}
		}
		JOINT LeftUpLeg
		{
			OFFSET 0.103461 1.857838 -10.548504
			CHANNELS 3 Zrotation Yrotation Xrotation
			JOINT LeftLeg
			{
				OFFSET 43.500042 -0.000038 0.000017
				CHANNELS 3 Zrotation Yrotation Xrotation
				JOINT LeftFoot
				{
					OFFSET 42.372253 -0.000008 0.000015
					CHANNELS 3 Zrotation Yrotation Xrotation
					JOINT LeftToe
					{
						OFFSET 17.299995 -0.000004 0.000004
						CHANNELS 3 Zrotation Yrotation Xrotation
						End Site
						{
							OFFSET 0.000000 0.000000 0.000000
						}
					}
				}
			}
		}
		JOINT Spine
		{
			OFFSET 6.901970 -2.603733 -0.000002
			CHANNELS 3 Zrotation Yrotation Xrotation
			JOINT Spine1
			{
				OFFSET 12.588097 0.000016 0.000005
				CHANNELS 3 Zrotation Yrotation Xrotation
				JOINT Spine2
				{
					OFFSET 12.343206 -0.000008 -0.000008
					CHANNELS 3 Zrotation Yrotation Xrotation
					JOINT Neck
					{
						OFFSET 25.832890 -0.000023 0.000008
						CHANNELS 3 Zrotation Yrotation Xrotation
						JOINT Head
						{
							OFFSET 11.766625 0.000019 -0.000006
							CHANNELS 3 Zrotation Yrotation Xrotation
							End Site
							{
								OFFSET 0.000000 0.000000 0.000000
							}
						}
					}
					JOINT RightShoulder
					{
						OFFSET 19.745903 -1.480385 6.000111
						CHANNELS 3 Zrotation Yrotation Xrotation
						JOINT RightArm
						{
							OFFSET 11.284122 -0.000021 -0.000025
							CHANNELS 3 Zrotation Yrotation Xrotation
							JOINT RightForeArm
							{
								OFFSET 33.000057 -0.000001 0.000032
								CHANNELS 3 Zrotation Yrotation Xrotation
								JOINT RightHand
								{
									OFFSET 25.200003 0.000023 0.000006
									CHANNELS 3 Zrotation Yrotation Xrotation
									End Site
									{
										OFFSET 0.000000 0.000000 0.000000
									}
								}
							}
						}
					}
					JOINT LeftShoulder
					{
						OFFSET 19.746098 -1.480366 -6.000072
						CHANNELS 3 Zrotation Yrotation Xrotation
						JOINT LeftArm
						{
							OFFSET 11.284136 -0.000004 -0.000006
							CHANNELS 3 Zrotation Yrotation Xrotation
							JOINT LeftForeArm
							{
								OFFSET 33.000092 0.000029 0.000002
								CHANNELS 3 Zrotation Yrotation Xrotation
								JOINT LeftHand
								{
									OFFSET 25.199776 0.000140 0.000420
									CHANNELS 3 Zrotation Yrotation Xrotation
									End Site
									{
										OFFSET 0.000000 0.000000 0.000000
									}
								}
							}
						}
					}
				}
			}
		}
	}
}
MOTION
Frames: 11
Frame Time: 0.016667
-57.471685 0.000000 467.378925 180.000000 1.475899 180.000000 -3.632507 89.479874 1.387159 89.294115 4.463879 177.200508 152.031404 -9.912796 -178.863011 -19.292904 -1.195189 -0.327194 74.399146 -2.142905 -8.102574 21.454558 0.003108 0.000018 -171.500354 -1.208801 179.506032 -29.362613 3.123069 -3.366879 78.602922 1.519220 -2.769414 21.454555 -0.003092 0.000000 9.507383 0.408963 -0.172353 9.001007 0.830124 -0.312391 8.682869 0.828085 -0.317406 25.064289 -1.142474 -2.333356 -19.214179 9.622014 -6.172812 177.312380 -78.333931 1.259372 -8.103816 51.477851 -8.592784 -71.014883 -21.282267 3.014955 0.790246 -7.596830 76.636887 -153.265942 85.306378 28.561278 -22.088120 -56.007898 -28.567742 -105.320300 -0.152090 -2.974338 -17.928698 -14.614204 7.332841 
-59.802961 0.000000 467.992119 180.000000 2.451472 180.000000 -3.303346 88.974367 1.610544 90.211332 3.729608 178.107068 152.101923 -8.705837 -179.487556 -23.167572 -0.837181 0.085595 71.442952 -2.205049 -6.610885 21.454557 0.003108 0.000017 -169.504922 -0.045478 179.040107 -30.175935 3.208921 -3.199398 78.407607 1.535045 -2.260191 21.454554 -0.003092 -0.000000 9.489920 0.203848 -0.214028 8.966283 0.423699 -0.411622 8.648160 0.421069 -0.414179 24.991014 -1.391259 -2.511925 -18.908579 9.998146 -6.463693 177.425354 -78.075457 1.150095 -6.612468 51.623649 -6.944517 -70.972201 -21.161394 3.007450 2.709777 -6.511564 78.340725 -151.672146 85.261644 30.167768 -21.699637 -55.947895 -28.817540 -105.241519 -0.157233 -2.970572 -18.045765 -14.553212 7.713473 
-62.074970 0.000000 468.542277 180.000000 3.328546 180.000000 -2.878340 88.461960 1.729618 91.148513 3.084395 179.006325 151.977623 -7.663605 179.051305 -28.042640 -0.160257 0.843744 71.910041 -2.193097 -4.972092 21.454558 0.003108 0.000017 -168.149176 0.970703 179.275855 -32.217790 3.015043 -3.370616 77.631601 1.655444 -2.218610 21.454555 -0.003092 0.000000 9.484105 0.021744 -0.239851 8.955241 0.062023 -0.477292 8.637129 0.059004 -0.477664 25.061986 -1.649684 -2.751090 -18.681742 10.377637 -6.825582 177.688095 -77.662401 0.891546 -5.642128 51.473872 -5.392304 -70.531510 -21.243476 2.991333 4.501983 -5.516931 80.284249 -149.847800 85.154051 32.008425 -21.259881 -56.033398 -29.055057 -105.074393 -0.137698 -2.964544 -18.115588 -14.483251 8.001148 
-64.292122 0.000000 469.031150 180.000000 4.110329 180.000000 -2.402203 87.987579 1.767002 92.051775 2.561817 179.820236 151.920230 -6.882008 177.122281 -33.097439 0.705496 1.733503 74.450912 -2.246779 -3.397727 21.454558 0.003108 0.000017 -167.437132 1.891718 -179.990221 -35.269067 2.581528 -3.810364 76.229055 2.065116 -1.804887 21.454555 -0.003092 0.000000 9.486500 -0.133719 -0.234523 8.960715 -0.248830 -0.478681 8.642609 -0.251852 -0.477176 25.193491 -1.852053 -3.025853 -18.482994 10.700072 -7.208226 178.057876 -77.186099 0.524859 -5.273375 51.123651 -4.000905 -69.605568 -21.517922 2.969827 6.054540 -4.660556 82.042830 -148.343786 84.969280 33.529256 -20.778642 -56.228339 -29.266442 -104.828400 -0.095292 -2.956654 -18.125368 -14.415381 8.146917 
-66.458829 0.000000 469.460488 180.000000 4.800215 180.000000 -1.917507 87.596153 1.748173 92.869376 2.200864 -179.526916 152.213510 -6.440004 175.099016 -37.505056 1.576666 2.586066 77.713823 -2.416946 -2.104706 21.454558 0.003108 0.000017 -167.381244 2.793594 -178.956256 -39.111943 1.941410 -4.442625 74.167924 2.994516 -0.195460 21.454555 -0.003092 0.000000 9.493619 -0.258923 -0.182711 8.975345 -0.502842 -0.384938 8.657242 -0.505294 -0.381902 25.300926 -1.933362 -3.310200 -18.260203 10.905239 -7.560892 178.502582 -76.737874 0.080554 -5.565242 50.667906 -2.812507 -68.104730 -21.974100 2.940565 7.238418 -3.962219 83.186410 -147.636294 84.697278 34.250964 -20.267163 -56.496881 -29.436417 -104.513013 -0.031821 -2.947229 -18.062498 -14.360384 8.101911 
-68.579499 0.000000 469.832041 180.000000 5.401722 180.000000 -1.463984 87.334153 1.697483 93.555802 2.016824 -179.092530 153.077093 -6.345343 173.312669 -40.623329 2.247764 3.285621 80.580800 -2.649576 -1.247576 21.454556 0.003108 0.000017 -167.974054 3.716186 -177.807750 -43.501708 1.116735 -5.125488 71.598687 4.559431 2.946025 21.454554 -0.003092 -0.000000 9.498820 -0.353340 -0.077933 8.985516 -0.699500 -0.183052 8.667413 -0.700730 -0.178832 25.339476 -1.862739 -3.576984 -17.962290 10.953773 -7.837437 179.009187 -76.384680 -0.429526 -6.495241 50.188620 -1.810718 -65.963004 -22.581031 2.895361 7.944513 -3.422442 83.290742 -147.943430 84.353749 33.952489 -19.739015 -56.812117 -29.564939 -104.146285 0.048509 -2.936725 -17.923978 -14.329118 7.838770 
-70.658542 0.000000 470.147559 180.000000 5.918428 180.000000 -1.075931 87.254227 1.627773 94.085219 1.915477 -178.867290 154.413474 -6.395599 171.929604 -42.514511 2.592215 3.733350 82.858923 -2.811015 -0.729717 21.454557 0.003109 0.000017 -169.115375 4.503297 -176.682241 -48.073944 0.108836 -5.452123 69.187520 6.038578 6.115520 21.454553 -0.003092 0.000000 9.482886 -0.428717 0.050823 8.952891 -0.860011 0.068347 8.634782 -0.859720 0.073533 25.426831 -1.742304 -3.796669 -17.546560 10.888740 -8.010718 179.587202 -76.095857 -1.014404 -7.770371 49.722362 -0.800910 -63.219444 -23.226839 2.827651 8.176745 -3.027929 81.964052 -148.951188 84.052802 32.945507 -19.210425 -57.181761 -29.719532 -103.780605 0.131910 -2.926392 -17.745001 -14.335039 7.416104 
-72.700369 0.000000 470.408793 180.000000 6.353939 180.000000 -0.774774 87.392894 1.548471 94.449029 1.803295 -178.812322 156.049185 -6.394089 171.052317 -43.415147 2.552970 3.857505 84.573557 -2.804904 -0.410393 21.454560 0.003109 0.000018 -170.685721 5.002862 -175.674828 -52.498710 -0.978844 -5.115673 67.482667 6.575439 7.820572 21.454551 -0.003092 0.000000 9.430506 -0.495294 0.168291 8.847174 -1.001927 0.298258 8.529046 -1.000245 0.304297 25.679881 -1.680865 -3.943550 -16.977515 10.767521 -8.063629 -179.790400 -75.825949 -1.645560 -9.082330 49.289450 0.408493 -59.949362 -23.785479 2.737469 7.986429 -2.783043 78.920075 -150.328154 83.898546 31.560702 -18.720795 -57.601653 -29.952410 -103.470141 0.203970 -2.917719 -17.569237 -14.387521 6.920673 
-74.709390 0.000000 470.617494 180.000000 6.711851 180.000000 -0.536430 87.715973 1.465225 94.702707 1.704548 -178.828108 157.874318 -6.307204 170.670103 -43.583156 2.243478 3.742105 85.712958 -2.669693 -0.241306 21.454562 0.003109 0.000018 -172.549717 5.299393 -174.795182 -56.640060 -1.855671 -4.460306 66.644081 6.321884 8.137491 21.454551 -0.003092 0.000000 9.354393 -0.545349 0.249411 8.694132 -1.107809 0.457192 8.375984 -1.105165 0.463868 26.045880 -1.684732 -4.010480 -16.236893 10.623702 -7.999911 -179.287917 -75.569066 -2.154845 -10.292924 48.894827 1.859036 -56.261336 -24.153587 2.620468 7.493291 -2.703707 74.249763 -151.673430 83.861468 30.204020 -18.410120 -57.988318 -30.177120 -103.241805 0.257249 -2.911367 -17.437813 -14.475546 6.466839 
-76.690014 0.000000 470.775410 180.000000 6.995732 180.000000 -0.336117 88.165959 1.382538 94.907075 1.646364 -178.823558 159.797553 -6.136684 170.704981 -43.268226 1.821378 3.495397 86.293459 -2.474120 -0.202961 21.454558 0.003108 0.000018 -174.572951 5.520431 -174.034728 -60.361923 -2.306907 -3.939329 66.754597 5.729517 7.547631 21.454551 -0.003092 -0.000000 9.272200 -0.572950 0.276882 8.529419 -1.164660 0.510837 8.211261 -1.161691 0.517856 26.443251 -1.730854 -3.997597 -15.326568 10.477974 -7.830506 -179.062115 -75.329176 -2.381723 -11.334400 48.534507 3.541225 -52.275835 -24.243279 2.481419 6.843243 -2.807064 68.205206 -152.599493 83.884896 29.268699 -18.415440 -58.252374 -30.280265 -103.108097 0.288117 -2.907608 -17.382391 -14.584122 6.154835 
-78.646652 0.000000 470.884294 180.000000 7.209108 180.000000 -0.191791 88.662758 1.308414 95.077615 1.557139 -178.803302 161.727528 -5.853302 170.926181 -42.668061 1.422991 3.192291 86.482659 -2.267219 -0.276695 21.454555 0.003108 0.000017 -176.658895 5.741591 -173.385622 -63.424186 -2.365931 -3.673729 67.700021 5.176167 6.765938 21.454551 -0.003092 -0.000001 9.193167 -0.596816 0.254516 8.371530 -1.210393 0.465254 8.053360 -1.207698 0.472550 26.845976 -1.778635 -3.914630 -14.312065 10.325419 -7.575283 -179.144387 -75.104988 -2.293709 -12.251925 48.193424 5.391126 -48.113071 -24.007038 2.322008 6.186277 -3.088842 61.335801 -152.975223 83.923801 28.888447 -18.731205 -58.355270 -30.210260 -103.051106 0.301245 -2.906013 -17.397289 -14.699658 5.999514 
